# xmcd
# 
# Track frame offsets:
#     150
#     15999
#     30024
#     52449
#     64188
#     78549
#     91563
#     111810
#     126513
#     141099
#     161613
#     202263
# 
# Disc length: 2908
# 
# Revision: 4
# Processed by: cddbd v1.5.2PL0 Copyright (c) Steve Scherf et al.
# Submitted via: fre:ac v1.0.31
# 
DISCID=9f0b5a0c
DTITLE=Monster Mike Welch - Axe To Grind
DYEAR=1997
DGENRE=Blues
TTITLE0=Did She Say
TTITLE1=Palm Of Her Hand
TTITLE2=Axe To Grind
TTITLE3=The Elkmont Stomp
TTITLE4=Every Time You Lie
TTITLE5=Afraid Of My Own Tears
TTITLE6=Take Your Best Shot
TTITLE7=She Couldn't Know
TTITLE8=Time Stands Still
TTITLE9=That's My Sin
TTITLE10=My Emptiness
TTITLE11=Cruise Control
EXTD=
EXTT0=
EXTT1=
EXTT2=
EXTT3=
EXTT4=
EXTT5=
EXTT6=
EXTT7=
EXTT8=
EXTT9=
EXTT10=
EXTT11=
PLAYORDER=
